<svg width="24" height="24" viewBox="0 0 24 24" fill="none" xmlns="http://www.w3.org/2000/svg">
<path d="M7 7.39334C7 6.75517 7 6.43608 7.13306 6.26019C7.24898 6.10696 7.42616 6.01213 7.61796 6.00068C7.83812 5.98754 8.10361 6.16453 8.6346 6.51853L15.5446 11.1252C15.9833 11.4177 16.2027 11.5639 16.2792 11.7483C16.346 11.9094 16.346 12.0906 16.2792 12.2517C16.2027 12.4361 15.9833 12.5823 15.5446 12.8748L8.6346 17.4815C8.10361 17.8355 7.83812 18.0125 7.61796 17.9993C7.42616 17.9879 7.24898 17.893 7.13306 17.7398C7 17.5639 7 17.2448 7 16.6067V7.39334Z" fill="white"/>
</svg>
