<svg width="105" height="103" viewBox="0 0 105 103" fill="none" xmlns="http://www.w3.org/2000/svg">
<path d="M48.637 102.944C48.601 102.884 48.565 102.8 48.529 102.692C48.493 102.596 48.475 102.488 48.475 102.368C48.475 102.164 48.523 102.002 48.619 101.882C48.715 101.762 48.853 101.702 49.033 101.702H53.929V97.958H49.267C49.231 97.898 49.195 97.814 49.159 97.706C49.123 97.61 49.105 97.502 49.105 97.382C49.105 97.178 49.153 97.016 49.249 96.896C49.345 96.776 49.483 96.716 49.663 96.716H53.929V92.018C53.989 91.994 54.085 91.97 54.217 91.946C54.337 91.922 54.463 91.91 54.595 91.91C55.135 91.91 55.405 92.126 55.405 92.558V102.152C55.405 102.392 55.333 102.584 55.189 102.728C55.045 102.872 54.853 102.944 54.613 102.944H48.637Z" fill="black"/>
<path d="M34.6767 88.886C34.5518 89.1455 34.372 89.3253 34.1373 89.4254C33.8918 89.5203 33.6285 89.5 33.3474 89.3646C33.0663 89.2293 32.8917 89.0386 32.8237 88.7928C32.7556 88.5469 32.7841 88.2942 32.909 88.0347C33.0288 87.7861 33.206 87.6117 33.4407 87.5116C33.6753 87.4115 33.9332 87.4291 34.2143 87.5645C34.4954 87.6999 34.6754 87.8931 34.7543 88.1442C34.8223 88.3901 34.7965 88.6373 34.6767 88.886Z" fill="black"/>
<path d="M21.4 78.2413C21.5496 78.429 21.6131 78.624 21.5903 78.8263C21.5675 79.0287 21.4622 79.2047 21.2746 79.3544L13.9567 85.1902C13.769 85.3399 13.574 85.4033 13.3717 85.3805C13.1693 85.3577 12.9933 85.2524 12.8436 85.0648L9.11767 80.3926C9.14213 80.327 9.18536 80.2465 9.24735 80.151C9.29996 80.063 9.37318 79.9816 9.467 79.9068C9.62649 79.7796 9.78308 79.7161 9.93675 79.7164C10.0904 79.7166 10.2234 79.7871 10.3356 79.9278L13.3994 83.7697L16.1155 81.6037L13.1527 77.8885C13.1772 77.8229 13.2204 77.7424 13.2824 77.6469C13.335 77.5589 13.4082 77.4775 13.502 77.4027C13.6615 77.2755 13.8181 77.212 13.9718 77.2122C14.1161 77.22 14.2443 77.2942 14.3566 77.4349L17.0725 80.8406L20.0278 78.4838L16.661 74.2619C16.6854 74.1963 16.724 74.1196 16.7766 74.0316C16.8292 73.9436 16.9071 73.8584 17.0103 73.7761C17.1698 73.6489 17.3264 73.5854 17.48 73.5857C17.6243 73.5934 17.7526 73.6676 17.8648 73.8084L21.4 78.2413Z" fill="black"/>
<path d="M11.3224 60.6097C11.0416 60.6738 10.789 60.6453 10.5644 60.5243C10.3372 60.3915 10.1888 60.173 10.1194 59.8689C10.05 59.5647 10.0902 59.3093 10.24 59.1028C10.3898 58.8963 10.6051 58.761 10.8858 58.6969C11.1549 58.6355 11.4017 58.6653 11.6263 58.7864C11.8509 58.9075 11.9979 59.1201 12.0673 59.4243C12.1367 59.7284 12.0979 59.9896 11.9507 60.2079C11.8009 60.4144 11.5915 60.5483 11.3224 60.6097Z" fill="black"/>
<path d="M10.914 41.1279C11.0929 40.3441 11.0523 39.7132 10.7921 39.2354C10.5229 38.7431 10.1075 38.4329 9.54593 38.3047C9.05457 38.1926 8.62075 38.2597 8.24447 38.5062C7.87087 38.7409 7.50852 39.169 7.15743 39.7905L6.3527 41.2131C5.95952 41.9111 5.4971 42.4271 4.96543 42.7612C4.43643 43.0836 3.80341 43.1606 3.06637 42.9924C2.6218 42.8909 2.24272 42.7183 1.92913 42.4744C1.60651 42.2161 1.35841 41.901 1.18482 41.529C1.01124 41.1571 0.909498 40.74 0.879607 40.2778C0.840687 39.8011 0.883978 39.2879 1.00948 38.7381C1.11629 38.2701 1.25604 37.8466 1.42872 37.4675C1.59237 37.074 1.77777 36.7471 1.98492 36.4867C2.18303 36.2119 2.38268 36.0112 2.58385 35.8848C2.78502 35.7584 2.97335 35.7153 3.14884 35.7553C3.31263 35.7927 3.44367 35.8657 3.54197 35.9743C3.64027 36.0829 3.70983 36.2095 3.75065 36.3543C3.44724 36.605 3.15172 36.9561 2.86408 37.4074C2.57911 37.847 2.36854 38.3651 2.23236 38.9618C2.07481 39.652 2.09688 40.2294 2.29857 40.6939C2.50293 41.1468 2.86834 41.4333 3.39481 41.5534C3.80428 41.6469 4.16974 41.5826 4.49121 41.3606C4.81268 41.1385 5.14177 40.7213 5.47849 40.1089L6.0387 39.1105C6.51873 38.2477 7.0645 37.6091 7.67603 37.1948C8.27853 36.7661 9.01264 36.6506 9.87838 36.8482C10.8026 37.0591 11.4753 37.5635 11.8963 38.3611C12.3174 39.1588 12.3877 40.1719 12.1073 41.4003C11.9845 41.9385 11.8255 42.4191 11.6305 42.8423C11.4381 43.2539 11.2298 43.6002 11.0056 43.8814C10.7841 44.1508 10.5656 44.3533 10.35 44.4887C10.1255 44.6098 9.92543 44.6503 9.74994 44.6102C9.55106 44.5648 9.40062 44.4689 9.29863 44.3226C9.18762 44.1618 9.12155 43.9929 9.10044 43.8158C9.2585 43.7165 9.42909 43.5892 9.61221 43.4341C9.78362 43.2763 9.95586 43.0879 10.1289 42.8689C10.2903 42.6472 10.4408 42.3923 10.5804 42.1042C10.72 41.816 10.8312 41.4906 10.914 41.1279Z" fill="black"/>
<path d="M18.8684 24.7208C18.6433 24.5412 18.508 24.3259 18.4626 24.0748C18.4247 23.8144 18.5031 23.5622 18.6976 23.3183C18.8921 23.0743 19.1168 22.9466 19.3717 22.9349C19.6265 22.9233 19.8665 23.0072 20.0917 23.1868C20.3075 23.3589 20.4381 23.5705 20.4834 23.8215C20.5288 24.0726 20.4542 24.3201 20.2597 24.564C20.0652 24.8079 19.8367 24.9404 19.5744 24.9614C19.3195 24.9731 19.0842 24.8928 18.8684 24.7208Z" fill="black"/>
<path d="M30.7951 4.05405L34.9891 12.7628C34.9454 12.8105 34.8693 12.8737 34.7608 12.9526C34.6683 13.0371 34.5626 13.108 34.4437 13.1653C33.968 13.3944 33.6338 13.3089 33.4411 12.9089L29.4815 4.68665L26.4489 6.1471C26.3904 6.10866 26.3241 6.05401 26.25 5.98314C26.1707 5.90145 26.1025 5.80114 26.0452 5.68222C25.9567 5.49842 25.9322 5.33704 25.9719 5.19808C26.0063 5.04831 26.1046 4.93438 26.2668 4.85628L33.2889 1.47459C33.3474 1.51303 33.4163 1.57309 33.4956 1.65478C33.5696 1.72565 33.6327 1.81514 33.6848 1.92326C33.7733 2.10706 33.8003 2.27384 33.7659 2.42361C33.7315 2.57338 33.6332 2.68731 33.471 2.76541L30.7951 4.05405Z" fill="black"/>
<path d="M51.6325 8.24402C51.6325 7.95602 51.7165 7.71602 51.8845 7.52402C52.0645 7.33202 52.3105 7.23602 52.6225 7.23602C52.9345 7.23602 53.1745 7.33202 53.3425 7.52402C53.5105 7.71602 53.5945 7.95602 53.5945 8.24402C53.5945 8.52002 53.5105 8.75402 53.3425 8.94602C53.1745 9.13802 52.9345 9.23402 52.6225 9.23402C52.3105 9.23402 52.0645 9.13802 51.8845 8.94602C51.7165 8.75402 51.6325 8.52002 51.6325 8.24402Z" fill="black"/>
<path d="M77.6567 10.5484C77.2506 11.3917 76.7724 12.0805 76.2221 12.6146C75.6771 13.138 75.0896 13.5143 74.4597 13.7437C73.835 13.9623 73.1815 14.0472 72.4991 13.9983C71.822 13.9386 71.1482 13.7473 70.4779 13.4245C69.8076 13.1017 69.238 12.6942 68.7691 12.202C68.3054 11.699 67.9643 11.1351 67.7457 10.5104C67.5323 9.87491 67.4603 9.18093 67.5296 8.4285C67.6041 7.66526 67.8445 6.86198 68.2506 6.01868C68.6567 5.17537 69.1323 4.49205 69.6773 3.9687C70.2332 3.45057 70.8261 3.0768 71.456 2.84739C72.0859 2.61798 72.7394 2.53314 73.4166 2.59286C74.0989 2.64176 74.7699 2.82502 75.4294 3.14262C76.0889 3.46022 76.6505 3.87052 77.1142 4.37352C77.583 4.8657 77.9242 5.42955 78.1376 6.06507C78.351 6.7006 78.423 7.39457 78.3536 8.14701C78.2951 8.90464 78.0628 9.70511 77.6567 10.5484ZM76.3106 9.9002C76.9354 8.6028 77.1063 7.45975 76.8233 6.47103C76.551 5.48751 75.9068 4.75104 74.8905 4.26162C74.3823 4.01691 73.8786 3.88753 73.3792 3.87348C72.8851 3.84861 72.4088 3.93888 71.9502 4.14427C71.4969 4.33885 71.0694 4.64576 70.6677 5.065C70.2769 5.48944 69.9252 6.02601 69.6128 6.67471C68.9881 7.9721 68.8118 9.11256 69.084 10.0961C69.3562 11.0796 70.0005 11.8161 71.0168 12.3055C72.0439 12.8001 73.0268 12.8472 73.9654 12.4469C74.9041 12.0465 75.6859 11.1976 76.3106 9.9002Z" fill="black"/>
<path d="M84.9426 23.5868C85.1677 23.4072 85.4077 23.3233 85.6626 23.3349C85.9249 23.3559 86.1534 23.4884 86.3479 23.7323C86.5424 23.9763 86.617 24.2238 86.5717 24.4748C86.5263 24.7259 86.391 24.9412 86.1659 25.1207C85.9501 25.2928 85.7147 25.3731 85.4599 25.3614C85.205 25.3498 84.9803 25.222 84.7858 24.9781C84.5913 24.7341 84.513 24.4819 84.5508 24.2215C84.5962 23.9704 84.7268 23.7589 84.9426 23.5868Z" fill="black"/>
<path d="M92.3578 39.0913C92.3184 39.0264 92.2736 38.9382 92.2235 38.8265C92.1617 38.7175 92.1148 38.5929 92.0827 38.4525C91.9653 37.9377 92.1229 37.6309 92.5558 37.5321L101.892 35.4013C102.079 35.3585 102.23 35.3733 102.345 35.4455C102.472 35.5151 102.587 35.6426 102.691 35.8282C102.873 36.1434 103.044 36.5414 103.203 37.0221C103.365 37.5144 103.499 37.9946 103.606 38.4626C103.942 39.9367 103.894 41.0986 103.46 41.9485C103.041 42.8073 102.287 43.3609 101.199 43.6092C100.392 43.7935 99.6649 43.7378 99.019 43.4421C98.3756 43.1581 97.8409 42.6217 97.4146 41.8328C97.107 42.2107 96.7994 42.5886 96.4918 42.9665C96.1842 43.3445 95.8901 43.7008 95.6096 44.0357C95.3434 44.3795 95.0985 44.6816 94.8748 44.9419C94.6538 45.2139 94.4806 45.4257 94.3552 45.5774C94.1456 45.576 93.9636 45.5068 93.8093 45.3697C93.6576 45.2443 93.563 45.0997 93.5256 44.9359C93.4802 44.7371 93.4897 44.5626 93.5539 44.4125C93.6181 44.2625 93.7336 44.0946 93.9005 43.9088L96.8956 40.5296L96.3589 38.1781L92.3578 39.0913ZM98.0088 39.9062C98.2064 40.772 98.5485 41.4078 99.035 41.8137C99.5215 42.2196 100.133 42.3385 100.87 42.1703C101.607 42.002 102.099 41.6191 102.344 41.0216C102.601 40.4214 102.62 39.6416 102.401 38.6823C102.328 38.3664 102.238 38.0487 102.128 37.7291C102.032 37.4186 101.933 37.1458 101.83 36.9108L97.5482 37.8881L98.0088 39.9062Z" fill="black"/>
<path d="M93.7155 59.1959C93.9963 59.26 94.2116 59.3952 94.3614 59.6018C94.5085 59.82 94.5473 60.0812 94.4779 60.3853C94.4085 60.6895 94.2615 60.9021 94.0369 61.0232C93.8124 61.1443 93.5597 61.1728 93.2789 61.1087C93.0098 61.0473 92.8004 60.9133 92.6506 60.7068C92.5008 60.5003 92.4606 60.2449 92.53 59.9407C92.5994 59.6366 92.7478 59.4181 92.975 59.2853C93.1996 59.1643 93.4464 59.1344 93.7155 59.1959Z" fill="black"/>
<path d="M90.1815 86.3756C90.0783 86.2933 89.9327 86.062 89.7448 85.6819C89.5661 85.3092 89.3574 84.8204 89.1184 84.2154C88.8795 83.6105 88.6207 82.9053 88.3421 82.0999C88.056 81.3038 87.767 80.444 87.4751 79.5206L84.3368 77.0179C84.3555 76.956 84.3966 76.866 84.4601 76.7478C84.5068 76.6316 84.5713 76.5218 84.6536 76.4186C84.9828 76.0058 85.3209 75.9378 85.6681 76.2147L88.3841 78.3807C88.9783 78.4247 89.6034 78.4781 90.2594 78.5408C90.908 78.6129 91.5612 78.6887 92.2191 78.7683C92.8771 78.8479 93.5144 78.934 94.1311 79.0268C94.7478 79.1195 95.3186 79.2217 95.8435 79.3334C95.9168 79.4532 95.9592 79.6021 95.9707 79.7801C95.9916 79.9657 95.9348 80.1428 95.8001 80.3117C95.6579 80.49 95.5025 80.5886 95.3339 80.6076C95.1578 80.636 94.9347 80.627 94.6648 80.5805C94.2824 80.5211 93.8344 80.4478 93.3207 80.3605C92.7996 80.2826 92.2738 80.201 91.7433 80.1156C91.2053 80.0396 90.6842 79.9617 90.18 79.8818C89.6851 79.8095 89.269 79.7539 88.9316 79.7151L88.8867 79.7714C89.3138 80.9102 89.7296 81.9478 90.134 82.8842C90.5309 83.83 90.9315 84.7711 91.3359 85.7075C91.3285 85.7938 91.2996 85.8781 91.2491 85.9607C91.2006 86.0601 91.1464 86.1473 91.0865 86.2224C90.8022 86.5789 90.5005 86.6299 90.1815 86.3756Z" fill="black"/>
<path d="M71.3451 88.2567C71.4701 88.5162 71.4985 88.7689 71.4305 89.0148C71.3516 89.2659 71.1716 89.4591 70.8905 89.5945C70.6094 89.7298 70.3515 89.7475 70.1169 89.6474C69.8822 89.5473 69.7024 89.3675 69.5774 89.108C69.4577 88.8594 69.4318 88.6121 69.4999 88.3662C69.5679 88.1203 69.7425 87.9297 70.0236 87.7943C70.3047 87.659 70.568 87.6387 70.8135 87.7336C71.0482 87.8337 71.2254 88.0081 71.3451 88.2567Z" fill="black"/>
</svg>
